<?xml version="1.0" encoding="utf-8"?>
<!-- Generator: Adobe Illustrator 18.1.1, SVG Export Plug-In . SVG Version: 6.00 Build 0)  -->
<svg version="1.1" id="Layer_1" xmlns="http://www.w3.org/2000/svg" xmlns:xlink="http://www.w3.org/1999/xlink" x="0px" y="0px"
	 viewBox="0 0 612 792" enable-background="new 0 0 612 792" xml:space="preserve">
<path fill="#FDEDEF" d="M546.7,512.3h-221c-74.7,0-135.3-60.6-135.3-135.3V49.9c0-7.5,6.1-13.7,13.7-13.7h300
	c33.3,0,60.4,27,60.4,60.4v397.9C564.4,504.4,556.4,512.3,546.7,512.3z"/>
<g>
	<path fill="#EFAB48" d="M414.5,163.9c-16.6,19.2-45.7,21.3-64.9,4.7c-19.2-16.6-21.3-45.7-4.7-64.9c16.6-19.2,45.7-21.3,64.9-4.7
		l-11,12.7c-12.2-10.6-30.6-9.2-41.2,3s-9.2,30.6,3,41.2c12.2,10.6,30.6,9.2,41.2-3L414.5,163.9z"/>
	<path fill="#F5B71D" d="M409.2,159.4c-14.1,16.3-38.8,18.1-55.1,4c-16.3-14.1-18.1-38.8-4-55.1s38.8-18.1,55.1-4l-6.4,7.4
		c-12.2-10.6-30.6-9.2-41.2,3s-9.2,30.6,3,41.2c12.2,10.6,30.6,9.2,41.2-3L409.2,159.4z"/>
</g>
<text transform="matrix(1 0 0 1 234.2977 288.9418)" fill="#231F20" font-family="'Roboto-Medium'" font-size="40">Nguyễn Hữu Trí</text>
<text transform="matrix(1 0 0 1 229.416 360.7505)" fill="#231F20" font-family="'Roboto-Bold'" font-size="22">Founder of AYP Skills Academy</text>
</svg>
